<svg width="40" height="40" viewBox="0 0 40 40" fill="none" xmlns="http://www.w3.org/2000/svg">
<path fill-rule="evenodd" clip-rule="evenodd" d="M31.8333 31.9334C32.8167 30.4334 33.1833 29.6668 33.9333 27.9834C28.4 25.8834 27.5167 18.0001 32.9833 14.9834C31.3167 12.8834 28.9667 11.6667 26.75 11.6667C25.15 11.6667 24.05 12.0834 23.0666 12.4668C22.2333 12.7834 21.4833 13.0667 20.55 13.0667C19.55 13.0667 18.6667 12.7501 17.7333 12.4168C16.7167 12.0501 15.65 11.6667 14.3166 11.6667C11.8333 11.6667 9.18332 13.1834 7.49999 15.7834C5.13332 19.4501 5.54999 26.3167 9.36666 32.1834C10.7333 34.2834 12.5667 36.6334 14.95 36.6667C15.95 36.6834 16.6 36.3834 17.3167 36.0668C18.1333 35.7001 19.0166 35.3001 20.5666 35.3001C22.1166 35.2834 22.9833 35.7001 23.8 36.0668C24.5 36.3834 25.1333 36.6834 26.1167 36.6667C28.5333 36.6334 30.4667 34.0334 31.8333 31.9334Z" fill="#419444"/>
<path fill-rule="evenodd" clip-rule="evenodd" d="M26.4 3.33325C26.6667 5.16659 25.9167 6.98327 24.9333 8.24994C23.8833 9.61661 22.05 10.6832 20.2833 10.6166C19.9667 8.84991 20.7833 7.03324 21.7833 5.81657C22.9 4.48324 24.7833 3.44992 26.4 3.33325Z" fill="#419444"/>
</svg>
