<svg width="40" height="40" viewBox="0 0 40 40" fill="none" xmlns="http://www.w3.org/2000/svg">
<path fill-rule="evenodd" clip-rule="evenodd" d="M31.8333 31.9334C32.8167 30.4334 33.1833 29.6667 33.9333 27.9834C28.4 25.8834 27.5167 18 32.9833 14.9833C31.3167 12.8833 28.9667 11.6667 26.75 11.6667C25.15 11.6667 24.05 12.0834 23.0666 12.4667C22.2333 12.7834 21.4833 13.0667 20.55 13.0667C19.55 13.0667 18.6667 12.75 17.7333 12.4167C16.7167 12.05 15.65 11.6667 14.3166 11.6667C11.8333 11.6667 9.18332 13.1834 7.49999 15.7834C5.13332 19.45 5.54999 26.3167 9.36666 32.1833C10.7333 34.2833 12.5667 36.6334 14.95 36.6667C15.95 36.6834 16.6 36.3834 17.3167 36.0667C18.1333 35.7 19.0166 35.3 20.5666 35.3C22.1166 35.2833 22.9833 35.7 23.8 36.0667C24.5 36.3834 25.1333 36.6834 26.1167 36.6667C28.5333 36.6334 30.4667 34.0334 31.8333 31.9334Z" fill="white"/>
<path fill-rule="evenodd" clip-rule="evenodd" d="M26.4 3.33331C26.6667 5.16665 25.9167 6.98333 24.9333 8.25C23.8833 9.61667 22.05 10.6833 20.2833 10.6166C19.9667 8.84997 20.7833 7.0333 21.7833 5.81663C22.9 4.4833 24.7833 3.44998 26.4 3.33331Z" fill="white"/>
</svg>
