<svg width="17" height="17" viewBox="0 0 17 17" fill="none" xmlns="http://www.w3.org/2000/svg">
<path d="M11.0412 1.23962C8.93746 1.23962 7.23038 2.94671 7.23038 5.05046C7.23038 7.15421 8.93746 8.86129 11.0412 8.86129C13.145 8.86129 14.852 7.15421 14.852 5.05046C14.852 2.94671 13.145 1.23962 11.0412 1.23962Z" fill="#419444"/>
<path d="M4.50329 9.22961C3.20704 9.22961 2.14454 10.285 2.14454 11.5884C2.14454 12.8917 3.19996 13.9471 4.50329 13.9471C5.79954 13.9471 6.86204 12.8917 6.86204 11.5884C6.86204 10.285 5.79954 9.22961 4.50329 9.22961Z" fill="#419444"/>
<path d="M11.7708 11.7725C10.6729 11.7725 9.78037 12.665 9.78037 13.7629C9.78037 14.8608 10.6729 15.7533 11.7708 15.7533C12.8687 15.7533 13.7612 14.8608 13.7612 13.7629C13.7612 12.665 12.8687 11.7725 11.7708 11.7725Z" fill="#419444"/>
</svg>
