<svg width="18" height="18" viewBox="0 0 18 18" fill="none" xmlns="http://www.w3.org/2000/svg">
<path d="M12.6439 0.450058H5.44273C2.31476 0.450058 0.450012 2.31481 0.450012 5.44277V12.6354C0.450012 15.7719 2.31476 17.6367 5.44273 17.6367H12.6353C15.7633 17.6367 17.628 15.7719 17.628 12.644V5.44277C17.6366 2.31481 15.7719 0.450058 12.6439 0.450058ZM6.55986 13.2541C6.55986 13.4947 6.3708 13.6838 6.13019 13.6838H3.73266C3.49204 13.6838 3.30299 13.4947 3.30299 13.2541V9.28398C3.30299 8.7426 3.74125 8.30434 4.28263 8.30434H6.13019C6.3708 8.30434 6.55986 8.4934 6.55986 8.73401V13.2541ZM10.6675 13.2541C10.6675 13.4947 10.4784 13.6838 10.2378 13.6838H7.84026C7.59965 13.6838 7.41059 13.4947 7.41059 13.2541V5.38262C7.41059 4.84124 7.84885 4.40298 8.39023 4.40298H9.69641C10.2378 4.40298 10.6761 4.84124 10.6761 5.38262V13.2541H10.6675ZM14.7837 13.2541C14.7837 13.4947 14.5946 13.6838 14.354 13.6838H11.9565C11.7158 13.6838 11.5268 13.4947 11.5268 13.2541V10.2035C11.5268 9.96285 11.7158 9.7738 11.9565 9.7738H13.804C14.3454 9.7738 14.7837 10.2121 14.7837 10.7534V13.2541Z" fill="#419444"/>
</svg>
