<svg width="18" height="18" viewBox="0 0 18 18" fill="none" xmlns="http://www.w3.org/2000/svg">
<path d="M13.8807 6.18747C14.2557 6.18747 14.5557 5.88748 14.5557 5.51248V2.02498C14.5557 1.64998 14.2557 1.34998 13.8807 1.34998C13.5057 1.34998 13.2057 1.64998 13.2057 2.02498V5.51248C13.2057 5.87998 13.5132 6.18747 13.8807 6.18747Z" fill="#419444"/>
<path d="M8.9982 11.8125C8.6232 11.8125 8.3232 12.1125 8.3232 12.4875V15.975C8.3232 16.35 8.6232 16.65 8.9982 16.65C9.3732 16.65 9.6732 16.35 9.6732 15.975V12.4875C9.6732 12.12 9.3732 11.8125 8.9982 11.8125Z" fill="#419444"/>
<path d="M4.1157 6.18747C4.4907 6.18747 4.7907 5.88748 4.7907 5.51248V2.02498C4.7907 1.64998 4.4907 1.34998 4.1157 1.34998C3.7407 1.34998 3.4407 1.64998 3.4407 2.02498V5.51248C3.4407 5.87998 3.7407 6.18747 4.1157 6.18747Z" fill="#419444"/>
<path d="M5.5107 7.62744H2.7207C2.3457 7.62744 2.0457 7.92744 2.0457 8.30244C2.0457 8.67744 2.3457 8.97744 2.7207 8.97744H3.4407V15.9749C3.4407 16.3499 3.7407 16.6499 4.1157 16.6499C4.4907 16.6499 4.7907 16.3499 4.7907 15.9749V8.97744H5.5107C5.8857 8.97744 6.1857 8.67744 6.1857 8.30244C6.1857 7.92744 5.8782 7.62744 5.5107 7.62744Z" fill="#419444"/>
<path d="M15.2757 7.62744H12.4857C12.1107 7.62744 11.8107 7.92744 11.8107 8.30244C11.8107 8.67744 12.1107 8.97744 12.4857 8.97744H13.2057V15.9749C13.2057 16.3499 13.5057 16.6499 13.8807 16.6499C14.2557 16.6499 14.5557 16.3499 14.5557 15.9749V8.97744H15.2757C15.6507 8.97744 15.9507 8.67744 15.9507 8.30244C15.9507 7.92744 15.6507 7.62744 15.2757 7.62744Z" fill="#419444"/>
<path d="M10.3932 9.02247H9.6732V2.02498C9.6732 1.64998 9.3732 1.34998 8.9982 1.34998C8.6232 1.34998 8.3232 1.64998 8.3232 2.02498V9.02247H7.6032C7.2282 9.02247 6.9282 9.32247 6.9282 9.69747C6.9282 10.0725 7.2282 10.3725 7.6032 10.3725H10.3932C10.7682 10.3725 11.0682 10.0725 11.0682 9.69747C11.0682 9.32247 10.7682 9.02247 10.3932 9.02247Z" fill="#419444"/>
</svg>
