<svg width="19" height="20" viewBox="0 0 19 20" fill="none" xmlns="http://www.w3.org/2000/svg">
<path d="M18.84 9.92C18.84 12.4533 17.9333 14.6267 16.12 16.44C14.3333 18.2267 12.1733 19.12 9.64 19.12C7.08 19.12 4.90667 18.2267 3.12 16.44C1.33333 14.6533 0.44 12.48 0.44 9.92C0.44 7.38667 1.33333 5.22667 3.12 3.44C4.93333 1.62666 7.10667 0.719998 9.64 0.719998C12.1467 0.719998 14.3067 1.62666 16.12 3.44C17.9333 5.25333 18.84 7.41333 18.84 9.92ZM2.36 9.92C2.36 11.8933 3.08 13.6 4.52 15.04C5.96 16.48 7.66667 17.2 9.64 17.2C11.64 17.2 13.3467 16.4933 14.76 15.08C16.2 13.64 16.92 11.92 16.92 9.92C16.92 7.89333 16.2133 6.17333 14.8 4.76C13.3867 3.34667 11.6667 2.64 9.64 2.64C7.64 2.64 5.92 3.36 4.48 4.8C3.06667 6.21333 2.36 7.92 2.36 9.92ZM9.8 14.68C8.44 14.68 7.30667 14.2267 6.4 13.32C5.49333 12.4133 5.04 11.28 5.04 9.92C5.04 8.58666 5.49333 7.46667 6.4 6.56C7.33333 5.62666 8.46667 5.16 9.8 5.16C11.08 5.16 12.24 5.68 13.28 6.72L12 7.88C11.3867 7.24 10.6533 6.92 9.8 6.92C9 6.92 8.30667 7.21333 7.72 7.8C7.16 8.38667 6.88 9.09333 6.88 9.92C6.88 10.32 6.96 10.7067 7.12 11.08C7.28 11.4533 7.49333 11.7733 7.76 12.04C8.02667 12.3067 8.33333 12.52 8.68 12.68C9.02667 12.84 9.4 12.92 9.8 12.92C10.8133 12.92 11.6133 12.5067 12.2 11.68L13.56 12.76C12.6 14.04 11.3467 14.68 9.8 14.68Z" fill="#3A495B"/>
</svg>
