<svg width="22" height="22" viewBox="0 0 22 22" fill="none" xmlns="http://www.w3.org/2000/svg">
<path d="M18.7324 19.5917H3.26742C2.91516 19.5917 2.62305 19.2996 2.62305 18.9473C2.62305 18.595 2.91516 18.3029 3.26742 18.3029H18.7324C19.0847 18.3029 19.3768 18.595 19.3768 18.9473C19.3768 19.2996 19.0847 19.5917 18.7324 19.5917Z" fill="#419444"/>
<path d="M17.0313 3.67988C15.3645 2.0131 13.7321 1.97014 12.0223 3.67988L10.9828 4.71948C10.8968 4.80539 10.8625 4.94286 10.8968 5.06314C11.5498 7.33993 13.3712 9.16137 15.648 9.81433C15.6824 9.82292 15.7168 9.83152 15.7511 9.83152C15.8456 9.83152 15.9316 9.79715 16.0003 9.72842L17.0313 8.68883C17.8819 7.84684 18.2943 7.03063 18.2943 6.20583C18.3029 5.35526 17.8905 4.53046 17.0313 3.67988Z" fill="#419444"/>
<path d="M14.1016 10.5962C13.8524 10.4759 13.6119 10.3556 13.3799 10.2181C13.1909 10.1064 13.0104 9.98616 12.83 9.85729C12.684 9.76278 12.5121 9.62531 12.3489 9.48785C12.3317 9.47926 12.2716 9.42771 12.2028 9.35897C11.9193 9.11841 11.6014 8.80911 11.3179 8.46544C11.2921 8.44826 11.2492 8.38811 11.189 8.31079C11.1031 8.20769 10.957 8.03586 10.8282 7.83825C10.7251 7.70937 10.6048 7.52036 10.4931 7.33134C10.3556 7.09936 10.2353 6.86739 10.1151 6.62682C9.95735 6.28888 9.5138 6.18849 9.2501 6.45219L4.41878 11.2835C4.30709 11.3952 4.20399 11.61 4.17821 11.756L3.71426 15.0467C3.62835 15.6309 3.79159 16.1808 4.15244 16.5502C4.46174 16.8509 4.89132 17.0141 5.35527 17.0141C5.45837 17.0141 5.56147 17.0056 5.66457 16.9884L8.96377 16.5244C9.11842 16.4986 9.33321 16.3955 9.43631 16.2839L14.2756 11.4446C14.534 11.1861 14.4369 10.7415 14.1016 10.5962Z" fill="#419444"/>
</svg>
