<svg width="18" height="18" viewBox="0 0 18 18" fill="none" xmlns="http://www.w3.org/2000/svg">
<path d="M12.5999 0.408325H5.40008C2.27272 0.408325 0.408325 2.27272 0.408325 5.40008V12.5913C0.408325 15.7273 2.27272 17.5917 5.40008 17.5917H12.5913C15.7187 17.5917 17.5831 15.7273 17.5831 12.5999V5.40008C17.5917 2.27272 15.7273 0.408325 12.5999 0.408325ZM5.96713 8.12364C6.21629 7.87448 6.62869 7.87448 6.87785 8.12364L8.35562 9.60141V4.28317C8.35562 3.93091 8.64773 3.63879 8.99999 3.63879C9.35225 3.63879 9.64437 3.93091 9.64437 4.28317V9.60141L11.1221 8.12364C11.3713 7.87448 11.7837 7.87448 12.0328 8.12364C12.282 8.3728 12.282 8.7852 12.0328 9.03436L9.45535 11.6119C9.39521 11.672 9.32647 11.715 9.24915 11.7493C9.17182 11.7837 9.08591 11.8009 8.99999 11.8009C8.91407 11.8009 8.83675 11.7837 8.75083 11.7493C8.67351 11.715 8.60477 11.672 8.54463 11.6119L5.96713 9.03436C5.71797 8.7852 5.71797 8.38139 5.96713 8.12364ZM14.3612 13.4848C12.6343 14.0605 10.8214 14.3526 8.99999 14.3526C7.17856 14.3526 5.36572 14.0605 3.63879 13.4848C3.30372 13.3731 3.12329 13.0037 3.23498 12.6686C3.34667 12.3336 3.70752 12.1445 4.05119 12.2648C7.24729 13.3302 10.7613 13.3302 13.9574 12.2648C14.2925 12.1531 14.6619 12.3336 14.7736 12.6686C14.8767 13.0123 14.6963 13.3731 14.3612 13.4848Z" fill="#419444"/>
</svg>
