<svg width="16" height="16" viewBox="0 0 16 16" fill="none" xmlns="http://www.w3.org/2000/svg">
<g clip-path="url(#clip0_253_18195)">
<path d="M13.6087 13.5722H11.2119V9.85572C11.2119 8.96948 11.1959 7.82861 9.9653 7.82861C8.71697 7.82861 8.52597 8.79421 8.52597 9.79119V13.572H6.12917V5.92932H8.43009V6.97377H8.46231C8.69257 6.58394 9.02532 6.26324 9.4251 6.04584C9.82488 5.82843 10.2767 5.72247 10.7325 5.73922C13.1618 5.73922 13.6097 7.32134 13.6097 9.37959L13.6087 13.5722ZM3.42479 4.88462C3.14969 4.88467 2.88076 4.80395 2.652 4.65266C2.42324 4.50137 2.24494 4.28632 2.13962 4.03469C2.0343 3.78306 2.0067 3.50615 2.06032 3.239C2.11394 2.97184 2.24637 2.72642 2.44086 2.53378C2.63534 2.34115 2.88315 2.20994 3.15295 2.15675C3.42275 2.10356 3.70241 2.13078 3.95658 2.23498C4.21075 2.33917 4.42801 2.51565 4.58088 2.7421C4.73375 2.96855 4.81538 3.2348 4.81543 3.50718C4.81546 3.68804 4.77951 3.86713 4.70965 4.03423C4.63978 4.20133 4.53736 4.35317 4.40823 4.48108C4.2791 4.60898 4.12577 4.71045 3.95703 4.77969C3.7883 4.84893 3.60744 4.88459 3.42479 4.88462ZM4.62318 13.5722H2.22389V5.92932H4.62318V13.5722ZM14.8036 -0.0736158H1.01951C0.706648 -0.0771117 0.405171 0.042521 0.181349 0.258993C-0.0424735 0.475466 -0.17033 0.771067 -0.174149 1.08084V14.7858C-0.170461 15.0957 -0.0426792 15.3915 0.181135 15.6082C0.40495 15.8249 0.706493 15.9448 1.01951 15.9415H14.8036C15.1172 15.9454 15.4196 15.8258 15.6443 15.6091C15.869 15.3925 15.9976 15.0963 16.002 14.7858V1.07985C15.9975 0.769464 15.8688 0.473527 15.6441 0.257059C15.4194 0.0405921 15.1171 -0.0786987 14.8036 -0.074605" fill="#0A66C2"/>
</g>
<defs>
<clipPath id="clip0_253_18195">
<rect width="16" height="16" rx="2" fill="white"/>
</clipPath>
</defs>
</svg>
