<svg width="20" height="20" viewBox="0 0 20 20" fill="none" xmlns="http://www.w3.org/2000/svg">
<path d="M17.7498 10.1917H14.8498C14.0332 10.1917 13.3082 10.6417 12.9415 11.375L12.2415 12.7583C12.0748 13.0917 11.7415 13.3 11.3748 13.3H8.6415C8.38317 13.3 8.0165 13.2417 7.77484 12.7583L7.07484 11.3833C6.70817 10.6583 5.97484 10.2 5.1665 10.2H2.24984C1.92484 10.2 1.6665 10.4583 1.6665 10.7833V13.5C1.6665 16.525 3.48317 18.3333 6.5165 18.3333H13.4998C16.3582 18.3333 18.1165 16.7667 18.3332 13.9833V10.775C18.3332 10.4583 18.0748 10.1917 17.7498 10.1917Z" fill="#419444"/>
<path d="M18.3332 6.50835V9.04169C18.1498 8.97502 17.9498 8.94169 17.7498 8.94169H14.8498C13.5582 8.94169 12.3998 9.65835 11.8248 10.8084L11.1998 12.0417H8.8165L8.1915 10.8167C7.6165 9.65835 6.45817 8.94169 5.1665 8.94169H2.24984C2.04984 8.94169 1.84984 8.97502 1.6665 9.04169V6.50835C1.6665 3.47502 3.47484 1.66669 6.50817 1.66669H13.4915C16.5248 1.66669 18.3332 3.47502 18.3332 6.50835Z" fill="#419444"/>
</svg>
