<svg width="14" height="16" viewBox="0 0 14 16" fill="none" xmlns="http://www.w3.org/2000/svg">
<path d="M11.9032 2.12748L7.7782 0.58248C7.35071 0.42498 6.65321 0.42498 6.22571 0.58248L2.10071 2.12748C1.30571 2.42748 0.660706 3.35748 0.660706 4.20498V10.28C0.660706 10.8875 1.05821 11.69 1.54571 12.05L5.6707 15.1325C6.3982 15.68 7.5907 15.68 8.31821 15.1325L12.4432 12.05C12.9307 11.6825 13.3282 10.8875 13.3282 10.28V4.20498C13.3357 3.35748 12.6907 2.42748 11.9032 2.12748ZM7.5607 8.65248V10.625C7.5607 10.9325 7.30571 11.1875 6.9982 11.1875C6.6907 11.1875 6.4357 10.9325 6.4357 10.625V8.65248C5.67821 8.41248 5.1232 7.70748 5.1232 6.87498C5.1232 5.83998 5.96321 4.99998 6.9982 4.99998C8.03321 4.99998 8.8732 5.83998 8.8732 6.87498C8.8732 7.71498 8.3182 8.41248 7.5607 8.65248Z" fill="#419444"/>
</svg>
