<svg width="22" height="22" viewBox="0 0 22 22" fill="none" xmlns="http://www.w3.org/2000/svg">
<path d="M19.6072 8.00625C19.6072 10.8077 17.5448 13.1193 14.8637 13.5232V13.4716C14.5973 10.1374 11.8904 7.43049 8.53045 7.1641H8.50467C8.90855 4.48299 11.2202 2.42059 14.0216 2.42059C17.1066 2.42059 19.6072 4.92125 19.6072 8.00625Z" fill="#419444"/>
<path d="M13.5747 13.5747C13.3599 10.8506 11.1772 8.66793 8.4531 8.4531C8.30701 8.44451 8.15233 8.43591 8.00625 8.43591C4.92125 8.43591 2.42059 10.9366 2.42059 14.0216C2.42059 17.1066 4.92125 19.6072 8.00625 19.6072C11.0912 19.6072 13.5919 17.1066 13.5919 14.0216C13.5919 13.8755 13.5833 13.7208 13.5747 13.5747ZM8.76246 14.7778L8.00625 16.1699L7.25003 14.7778L5.85792 14.0216L7.25003 13.2654L8.00625 11.8732L8.76246 13.2654L10.1546 14.0216L8.76246 14.7778Z" fill="#419444"/>
</svg>
