<svg width="22" height="22" viewBox="0 0 22 22" fill="none" xmlns="http://www.w3.org/2000/svg">
<g clip-path="url(#clip0_227_40909)">
<path d="M11.4489 10.5984C11.4456 10.5949 11.4446 10.5901 11.4411 10.5867L7.9929 7.13841V4.97173C7.9929 4.81121 7.92917 4.65782 7.8159 4.54451L4.1906 0.878966C4.01832 0.706724 3.7581 0.654197 3.53208 0.748012C3.3061 0.841223 3.15916 1.06192 3.15916 1.30619V3.11884H1.30623C1.062 3.1188 0.841301 3.2657 0.74809 3.49172C0.654275 3.7177 0.706198 3.97735 0.879084 4.15024L4.54467 7.81578C4.65798 7.92909 4.81137 7.99282 4.97185 7.99282H7.13853L10.5868 11.441C10.5902 11.4445 10.5949 11.4455 10.5985 11.4489C10.8337 11.6734 11.1911 11.6764 11.4294 11.4489C11.6805 11.2093 11.6748 10.8351 11.4489 10.5984Z" fill="#419444"/>
<path d="M11.014 0.702011C9.46795 0.702011 8.00619 1.09536 6.68988 1.70976L8.54338 3.56326C9.32129 3.30458 10.1504 3.15916 11.014 3.15916C15.345 3.15912 18.8688 6.68292 18.8688 11.0139C18.8688 15.3449 15.345 18.8687 11.014 18.8687C6.68295 18.8687 3.1592 15.3449 3.1592 11.0139C3.1592 10.1503 3.30465 9.32117 3.5633 8.54326L1.7098 6.68976C1.09547 8.00611 0.702087 9.46787 0.702087 11.0139C0.702087 16.6778 5.35009 21.3258 11.014 21.3258C16.6779 21.3258 21.3259 16.6778 21.3259 11.0139C21.3259 5.35001 16.678 0.702011 11.014 0.702011Z" fill="#419444"/>
<path d="M11.014 5.57599C10.3753 5.57599 9.77109 5.7069 9.20131 5.91004V6.63808L10.5981 8.03491C10.7353 8.01574 10.8716 7.99286 11.014 7.99286C12.6797 7.99286 14.035 9.3482 14.035 11.0139C14.035 12.6797 12.6797 14.035 11.014 14.035C9.34822 14.035 7.99288 12.6797 7.99288 11.0139C7.99288 10.8715 8.01576 10.7353 8.03493 10.5981L6.63814 9.20125H5.9101C5.70696 9.77103 5.57605 10.3752 5.57605 11.0139C5.57605 14.0126 8.01536 16.4518 11.014 16.4518C14.0126 16.4518 16.4519 14.0126 16.4519 11.0139C16.4519 8.01525 14.0126 5.57599 11.014 5.57599Z" fill="#419444"/>
</g>
<defs>
<clipPath id="clip0_227_40909">
<rect width="20.6239" height="20.6239" fill="white" transform="translate(0.701935 0.701931)"/>
</clipPath>
</defs>
</svg>
