<svg width="20" height="20" viewBox="0 0 20 20" fill="none" xmlns="http://www.w3.org/2000/svg">
<g clip-path="url(#clip0_232_19135)">
<path d="M10 20C15.5228 20 20 15.5228 20 10C20 4.47715 15.5228 0 10 0C4.47715 0 0 4.47715 0 10C0 15.5228 4.47715 20 10 20Z" fill="#29A71A"/>
<path d="M14.4085 5.59079C13.3681 4.53999 11.9864 3.89557 10.5127 3.77377C9.03901 3.65196 7.57029 4.06079 6.37147 4.92652C5.17265 5.79224 4.32266 7.05786 3.97481 8.49509C3.62695 9.93233 3.80414 11.4466 4.47441 12.7647L3.81646 15.959C3.80963 15.9908 3.80944 16.0236 3.81589 16.0555C3.82234 16.0874 3.8353 16.1176 3.85396 16.1442C3.88129 16.1846 3.9203 16.2157 3.96578 16.2334C4.01127 16.2511 4.06106 16.2544 4.10851 16.2431L7.23919 15.501C8.55358 16.1543 10.0571 16.3201 11.4823 15.9689C12.9074 15.6177 14.1618 14.7723 15.0221 13.583C15.8824 12.3938 16.2929 10.9379 16.1806 9.47441C16.0682 8.01092 15.4403 6.63476 14.4085 5.59079ZM13.4324 13.3817C12.7125 14.0995 11.7855 14.5734 10.7821 14.7365C9.77866 14.8996 8.74934 14.7437 7.83919 14.2908L7.40282 14.0749L5.48351 14.5294L5.48919 14.5056L5.88691 12.5737L5.67328 12.1522C5.20823 11.2388 5.04418 10.2017 5.20463 9.18947C5.36507 8.1772 5.84178 7.24168 6.56646 6.51692C7.47703 5.60663 8.71187 5.09526 9.99941 5.09526C11.287 5.09526 12.5218 5.60663 13.4324 6.51692C13.4401 6.52582 13.4485 6.53417 13.4574 6.54192C14.3567 7.45456 14.8587 8.68571 14.854 9.96696C14.8493 11.2482 14.3383 12.4757 13.4324 13.3817Z" fill="white"/>
<path d="M13.261 11.9647C13.0258 12.3351 12.6542 12.7885 12.1871 12.901C11.369 13.0988 10.1133 12.9079 8.55077 11.451L8.53145 11.434C7.15759 10.1601 6.80077 9.0999 6.88714 8.25899C6.93486 7.78172 7.33259 7.3499 7.66782 7.06808C7.72082 7.02285 7.78366 6.99064 7.85134 6.97404C7.91901 6.95744 7.98962 6.9569 8.05754 6.97248C8.12545 6.98805 8.18878 7.01929 8.24246 7.06372C8.29614 7.10814 8.33868 7.1645 8.36668 7.22831L8.87236 8.36467C8.90522 8.43835 8.9174 8.51959 8.90759 8.59967C8.89778 8.67975 8.86636 8.75565 8.81668 8.81922L8.561 9.15103C8.50614 9.21955 8.47303 9.30291 8.46595 9.3904C8.45886 9.47789 8.47811 9.56549 8.52123 9.64194C8.66441 9.89308 9.00759 10.2624 9.38827 10.6044C9.81554 10.9908 10.2894 11.3442 10.5894 11.4647C10.6697 11.4975 10.7579 11.5055 10.8428 11.4876C10.9277 11.4698 11.0052 11.427 11.0655 11.3647L11.3621 11.0658C11.4194 11.0094 11.4905 10.9691 11.5684 10.9492C11.6462 10.9292 11.728 10.9302 11.8053 10.9522L13.0065 11.2931C13.0727 11.3134 13.1334 11.3486 13.184 11.396C13.2346 11.4434 13.2736 11.5017 13.2982 11.5665C13.3228 11.6313 13.3322 11.7009 13.3257 11.7699C13.3193 11.8389 13.2971 11.9055 13.261 11.9647Z" fill="white"/>
</g>
<defs>
<clipPath id="clip0_232_19135">
<rect width="20" height="20" fill="white"/>
</clipPath>
</defs>
</svg>
